<svg width="88" height="88" viewBox="0 0 88 88" fill="none" xmlns="http://www.w3.org/2000/svg">
<g clip-path="url(#clip0_2367_2474)">
<path d="M71.2543 27.6501L33.6317 13.9566C32.4776 13.5365 31.1555 13.5781 30.0537 14.0919C28.9518 14.6057 28.0701 15.5918 27.6501 16.7459L24.7097 24.8243L34.1731 28.2687C34.6559 27.6603 35.2122 27.2093 35.9992 26.8422C38.6752 25.5944 41.6758 26.6865 42.9236 29.3625C43.2907 30.1496 43.4269 30.8526 43.4056 31.6291L52.6382 34.9894C53.121 34.381 53.6773 33.93 54.4643 33.563C57.1403 32.3152 60.1409 33.4073 61.3887 36.0833C62.6366 38.7593 61.5444 41.7598 58.8684 43.0077C56.1925 44.2555 53.1919 43.1634 51.944 40.4874C51.577 39.7003 51.4408 38.9973 51.462 38.2208L42.2295 34.8605C42.0721 34.9339 41.9881 35.1647 41.8307 35.2381L49.4645 51.6089C51.647 51.3577 53.7138 52.502 54.668 54.5483C55.9158 57.2243 54.8237 60.2249 52.1477 61.4727C49.4717 62.7206 46.4711 61.6285 45.2233 58.9525C44.2691 56.9061 44.7209 54.5874 46.3163 53.0769L38.609 36.5487C36.4265 36.7999 34.3598 35.6556 33.4056 33.6092C33.0385 32.8222 32.9024 32.1191 32.9236 31.3427L23.4602 27.8983L13.9566 54.3685C13.5365 55.5225 13.5781 56.8446 14.0919 57.9465C14.6057 59.0484 15.5918 59.93 16.7458 60.3501L54.3684 74.0436C55.5225 74.4636 56.8446 74.4221 57.9465 73.9082C59.0484 73.3944 59.93 72.4084 60.3501 71.2543L74.0436 33.6317C74.4636 32.4776 74.422 31.1556 73.9082 30.0537C73.3944 28.9518 72.4084 28.0701 71.2543 27.6501Z" fill="#F4511E"/>
</g>
<defs>
<clipPath id="clip0_2367_2474">
<rect width="66" height="66" fill="white" transform="translate(0.145508 28.0383) rotate(-25)"/>
</clipPath>
</defs>
</svg>
