<svg width="88" height="88" viewBox="0 0 88 88" fill="none" xmlns="http://www.w3.org/2000/svg">
<g clip-path="url(#clip0_2367_2484)">
<path d="M13.1057 21.9949L47.0016 6.18897C54.1048 2.8767 62.693 6.00254 66.0053 13.1057L81.8112 47.0016C85.1235 54.1048 81.9976 62.693 74.8944 66.0053L40.9985 81.8112C33.8953 85.1235 25.3071 81.9976 21.9949 74.8944L6.18895 40.9985C2.87668 33.8953 6.00252 25.3072 13.1057 21.9949Z" fill="#FFD02F"/>
<path fill-rule="evenodd" clip-rule="evenodd" d="M45.1298 16.1648L38.5251 19.2447L48.4827 26.2833L32.045 22.2664L25.4403 25.3462L36.8843 34.271L18.9602 28.3679L12.3555 31.4478L25.9334 43.322L33.2751 76.31L39.8798 73.2302L37.5319 35.3344L46.3599 70.2084L52.9646 67.1286L49.1303 27.3468L59.5693 64.0488L66.174 60.9689L60.7043 18.0052L45.1298 16.1648Z" fill="#050038"/>
</g>
<defs>
<clipPath id="clip0_2367_2484">
<rect width="66" height="66" fill="white" transform="translate(0.145508 28.0383) rotate(-25)"/>
</clipPath>
</defs>
</svg>
