<svg width="180" height="198" viewBox="0 0 180 198" fill="none" xmlns="http://www.w3.org/2000/svg">
<path fill-rule="evenodd" clip-rule="evenodd" d="M0 198C30.7429 186.932 71.4058 140.199 71.4058 94.6957H98.0082C96.7784 103.304 99.2674 126.148 115.593 131.59C145.107 141.429 164.782 113.143 164.782 113.143C164.782 113.143 183.228 92.236 178.309 56.5714C173.574 22.2376 135.3 0.942397 105.756 0H0V198ZM84.751 55.0497C83.2815 55.0497 82.0876 56.2435 82.0876 57.7132C82.0876 59.1829 83.2815 60.3766 84.751 60.3766C86.2209 60.3766 87.4145 59.1829 87.4145 57.7132C87.4145 56.2435 86.2209 55.0497 84.751 55.0497ZM60.4496 88.9645H108.11V92.8709H60.4496V88.9645ZM76.7605 57.7137C76.7605 62.1194 80.3451 65.7041 84.7509 65.7041C89.1566 65.7041 92.7413 62.1196 92.7413 57.7137C92.7413 54.2456 90.1527 51.3173 87.0592 50.2137V12.2571L109.159 57.8641L106.485 61.8752C101.476 69.3899 98.7398 78.2176 98.2639 87.1894H71.238C70.7622 78.2176 68.0259 69.3899 63.0168 61.8754L60.3429 57.8649L82.4425 12.2571V50.2137C79.3494 51.3173 76.7605 54.2456 76.7605 57.7137Z" fill="#1149D7"/>
</svg>
